<mxfile host="app.diagrams.net" modified="2024-01-17T20:24:04.454Z" agent="Mozilla/5.0 (Windows NT 10.0; Win64; x64; rv:121.0) Gecko/20100101 Firefox/121.0" version="22.1.17" etag="NgXOqclCzd6JksjXUB8O" type="github">
  <diagram name="Page-1" id="J0Pg_phEm9WujtRi0JvC">
    <mxGraphModel>
      <root>
        <mxCell id="0" />
        <mxCell id="1" parent="0" />
      </root>
    </mxGraphModel>
  </diagram>
</mxfile>
